<svg xmlns="http://www.w3.org/2000/svg" xmlns:xlink="http://www.w3.org/1999/xlink" version="1.1" id="274utrv67r" x="0px" y="0px" viewBox="0 0 4853.8 6176.5" enable-background="new 0 0 4853.8 6176.5" xml:space="preserve" width="100%" height="100%" isInit="true" preserveAspectRatio="none" opacity="1" style="display: block; overflow: hidden; position: absolute; left: 0px; top: 0px;">
<g isInit="true">
	<path fill="#56332e" d="M902.3,1143.2c-14.2-10-12.8,59.4-12.9,62.9c-1.5,31.2,4.6,58.2-29.8,56.5   c-74.8-3.8-126.1-163.5-146.6-219.8c-23.6-64.9-34.1-131.6-21-200c11.9-61.9,32.6-117.9,31.5-181.9   c-2.2-137.4,21.3-246.3,105.3-357.6C985.2,95.9,1242-19.1,1500.9,2.7c63.8,5.4,131.1,16.8,188.3,47.1c26.5,14,48.8,38.4,75.4,47.3   c37.2,12.4,86.9,10.4,125.6,17.6c128.8,23.7,259.3,66.6,362.4,149.9c276.8,223.6,139.7,574.6,173.8,875.3   c-267.6-25.2-527.8,22.2-787.1,83.1c-127.7,30-259.9,55.9-391.2,36C1135.3,1241.7,996.8,1209.7,902.3,1143.2z" origin_fill="#56332e" isInit="true"></path>
	<path fill="#f9b098" d="M2822,2544.8c-143.2-163.7-297.6-323-387.9-524c-97.8-217.8-131.4-460-154.6-695.6   c-287.4,160.2-576.1,320.8-840.8,517.4c-24.4,18.1-79.3,45.8-92.8,71.3c-12.3,23.2,16.3,65.6,27.5,95.5   c28.1,74.9,47.1,153.3,57.8,232.5c20.8,153.9,11.5,311.6-24.1,462.6c-15.4,65.3-65,153.4-52,215c14.8,69.9,60.4,146.9,90.6,211.6   c62.9,134.8,143.6,264.9,253.3,366.8c234.8,218.1,539.4,110.5,741.9-94.1C2672.5,3169.9,2834,2882,2822,2544.8z" origin_fill="#f9b098" isInit="true"></path>
	<path opacity="0.1" d="M2388.7,1903.4c-62.9-186.6-89.9-383-109.1-578.3c-276.1,153.9-553.3,308.1-809.4,494.3   c-31.5,22.9-62.8,46.3-93.5,70.2c-7.9,6.1-38.2,23-40.9,32.2c-2.9,9.9,20.6,44.9,24.5,54.2c27.7,66.3,47.8,135.6,61.3,206.2   c28,147.2,26.9,299.7,1,447.1c196.2-1.5,376.3-120.1,521.5-241.3C2112.6,2247.5,2258,2079.1,2388.7,1903.4z" fill="#000000" origin_fill="#000000" isInit="true"></path>
	<path fill="#f9b098" d="M1946.9,1964.5c-128.6,129.2-305.3,252.9-497.2,230.3c-181.9-21.4-327.3-162.1-406-319.9   c-87.8-176-112.6-375.8-159.7-564.7c-48.4-194-84.8-388-11.6-581.3c123.7-326.6,457-531.4,802.2-508.6   c161.4,10.6,328.3,62.4,453.2,168.2c141.2,119.6,201.7,303.5,208.7,483.9C2351.5,1257.9,2223,1687.1,1946.9,1964.5z" origin_fill="#f9b098" isInit="true"></path>
	<path fill="#f9b098" d="M2228.7,1213.2c37.8-77.7,85.1-169.6,179.4-185.8c108.2-18.5,150.4,80.3,149.1,171.3   c-3,201.1-179.8,364.3-381,349.4C2202,1437.9,2177.8,1317.7,2228.7,1213.2z" origin_fill="#f9b098" isInit="true"></path>
	<g isInit="true">
		<path opacity="0.1" d="M2291.2,1432.1c37.3-2.5,62.3-49.6,71.7-80.3c18.7-60.7-14.7-50.8-28.5-95c-11.7-37.5,39.7-67.4,67.8-79.9    c25.5-11.3,72.1-27.8,19.3-44.4c-60.6-19.1-154.9,74.9-135.3,132.9c14.1,41.7,57.6,31.2,47,80.4    C2331.3,1355.2,2271.2,1433.5,2291.2,1432.1z" fill="#000000" origin_fill="#000000" isInit="true"></path>
	</g>
	<g isInit="true">
		<path fill="#f4876f" d="M1454.5,1770.4c-104.7-7.9-55.7,167.4,15.6,188.1c99.4,28.8,75-117.6,33.5-160.3" origin_fill="#f4876f" isInit="true"></path>
		<g isInit="true">
			<path fill="#f26c4d" d="M1457.5,1759.5c-127.4-34.7-88.5,167.4-16.9,210.2c106.5,63.6,158.5-89.3,98.8-162.2     c-32.3-39.5-54.8-21.3-41.4,19.1c9.7,29.2,51.9,124.9-18.2,112c-38.1-7-64.4-64.3-63.3-97.9c0.8-25.4,11.5-35.6,26.3-53.7     C1443.6,1786.2,1486.8,1767.5,1457.5,1759.5z" origin_fill="#f26c4d" isInit="true"></path>
		</g>
	</g>
	<path fill="#f7ebe7" d="M1385.2,2667.4c128.5,136.5,226.6,294,398.6,382c47,24,80.4,45.1,129.4,22.8c42.2-19.2,83.5-40.1,124-62.6   c80.7-44.8,158.1-95.8,230.8-152.8c142.2-111.4,271-247.6,353.7-409.6c20.7-40.5,29-77.6,42.4-119.6c14.4-45.1,64.1-67.8,105-93.8   c90.1-57.4,187.2-105.3,290-135.1c139.3,708.2-61.7,1439.2-567.1,1958.3c-115.4,118.5-243.9,224.3-382.7,314.4   c-57.9,37.6-133.5,100-200.6,115.5c-65,15-156.4-28.4-214.5-59.5c-310.9-166.4-385.5-501.5-458.1-817.2   c-47.3-205.8-89.7-412.7-132.7-619.4c-11.2-53.9-22.4-107.7-33.7-161.5c-4.3-20.4-8.6-40.8-13-61.2c-2.6-12.2-5.2-24.3-7.8-36.4   c-13.2-22.1-7.1-32,18.3-29.5c35.4-21.4,104.5-21.5,146.3-27.2C1270.3,2667,1327.9,2663.1,1385.2,2667.4z" origin_fill="#f7ebe7" isInit="true"></path>
	<path fill="#aa2500" d="M2208.6,4307.8c-30.1-219.8-79-437-130.1-652.7c-12.3-52.1-25-104.1-37.8-156.1   c-8.4-34.1-9.5-43.2,10.9-71.6c19.5-27.2,38.9-54.4,58.4-81.6c6.4-9,17.4-20,21.6-30.2c12.2-29.4,14.7-2-0.3-35.6   c-7.2-16.1-29.5-35.7-40.9-49.8c-31.2-38.5-72.2-78.3-119.3-97.4c-45.4-18.4-87.5-7.5-134.3,9.2c-46.8,16.7-67,50.2-100,86.9   c-14.4,16-38,34.3-47.7,54.3c-14.5,30.1-0.9,38.8,19.3,69c15.3,22.8,31.6,45.1,49.1,66.3c24.5,29.7,28.2,30,23.3,66.4   c-14.5,108.3-47.6,216.6-65.4,325c-17.8,108.2-33.4,216.8-52.1,324.9c-10.6,61.3-30.8,113.4-7.1,171.8   c22.1,54.5,47.5,107.7,75.7,159.4c62.1,113.7,138,220,225,316C1989.4,4602.1,2068.1,4428.4,2208.6,4307.8z" origin_fill="#aa2500" isInit="true"></path>
	<path fill="#454e5c" d="M4203.2,6176.5c-473.6,0-947.1,0-1420.7,0c-754.6,0-1509.2,0-2263.8,0c-172.9,0-345.8,0-518.7,0   c5.6-478.9,16.3-957.7,31.5-1436.3c15-470.3,3.6-943.7,40.2-1412.9c29.1-373.5,173.2-820.9,626.3-805.1   c100.1,3.5,200.9,27.1,296.9,54.3c46.7,13.2,93,28.3,138.5,45.2c22.1,8.2,44,16.9,65.7,26.1c41,17.3,41.3,21.8,40.6,64.4   c-3.2,195.4,16.6,391.1,57.7,582.1c94.4,438.2,301.2,852.8,600.2,1187.3c305.3-416.1,557.4-872.8,736-1357.5   c89-241.6,159.5-490.2,208.1-743c11.4-59.2,21.6-118.6,30.5-178.2c5.2-34.8,3.2-50.1,31.1-69.8c32.1-22.7,73.7-37.1,108-57   c108.6-62.9,211.3-136.9,326.5-187.7c114-50.3,245-80.8,368.7-51.4c113.9,27.1,199.1,106.3,263.8,200.4   c149.4,217.3,246.6,480.8,341.7,725.1c100.4,257.8,189.4,519.8,285.5,779.2c95.4,257.8,195.4,517.9,236.9,791   c18.5,122,40.3,265.6-1.6,385.1c-32.6,92.9-99.4,172.3-177.9,230.1c-161.6,118.9-395.4,152.1-548.5,0.8   C4145.3,5357.5,4164.5,5767.8,4203.2,6176.5z" origin_fill="#454e5c" isInit="true"></path>
	<path fill="#828487" d="M2464.6,2653.1c-21.6,10.9-90.3,61.2-111,55.8c-6.2-1.6-10.9-18.8-14.8-25.3   c-39.5-65.7-69.9-139-104.3-207.4c-99.2-197.1-198.3-394.3-297.5-591.4c-25.6-50.9-51.2-101.9-76.9-152.8   c21.6-10.9,90.3-61.2,111-55.8c6.2,1.6,10.9,18.8,14.8,25.3c39.5,65.7,69.9,139,104.3,207.4c99.2,197.1,198.3,394.3,297.5,591.4   C2413.4,2551.2,2439,2602.2,2464.6,2653.1z" origin_fill="#828487" isInit="true"></path>
	<path fill="#f9b098" d="M2695.5,3161.3c-39.1,53.6,131.3,117.2,161.9,123.5c103.7,21.4,196.9-37.1,240-131   c44.1-96,27.1-210.8-40.9-291c-69.4-81.8-173.7-122.4-257.8-186C2823,2839.5,2794.2,3026.4,2695.5,3161.3z" origin_fill="#f9b098" isInit="true"></path>
	<path opacity="0.1" d="M2695.5,3161.3c-39.1,53.6,131.3,117.2,161.9,123.5c103.7,21.4,196.9-37.1,240-131   c44.1-96,27.1-210.8-40.9-291c-69.4-81.8-173.7-122.4-257.8-186C2823,2839.5,2794.2,3026.4,2695.5,3161.3z" fill="#000000" origin_fill="#000000" isInit="true"></path>
	<path fill="#1d232d" d="M2296.1,2352.7c-63.7,32-148.2,57.3-113.3,146c19.8,50.5,49.8,99,74.1,147.4   c81.3,161.7,162.6,323.3,244,485c18.5,36.9,38.5,101.2,81.7,115.5c74.3,24.6,198.3-68.6,171-144.3   c-45.9-127.1-125.8-250.1-186.4-370.6c-44.1-87.8-88.3-175.5-132.4-263.3C2408.8,2416.7,2375.1,2313,2296.1,2352.7z" origin_fill="#1d232d" isInit="true"></path>
	<path fill="#f9b098" d="M2329.3,2916.9c-42.6-44.2-311.3-265-148.5-302.5c31.4-7.2,61.2,4.9,88.4,20c38.9,21.5,35.4,32.5,38.7,75.2   C2313.4,2778.6,2331.8,2847.3,2329.3,2916.9z" origin_fill="#f9b098" isInit="true"></path>
	<path opacity="0.1" d="M2329.3,2916.9c-42.6-44.2-311.3-265-148.5-302.5c31.4-7.2,61.2,4.9,88.4,20c38.9,21.5,35.4,32.5,38.7,75.2   C2313.4,2778.6,2331.8,2847.3,2329.3,2916.9z" fill="#000000" origin_fill="#000000" isInit="true"></path>
	<path fill="#f9b098" d="M2970.5,3074.6c-6.7-43.2-7.1-92.2-29.7-130.4c-16.4-27.8-40.4-43.9-49.2-74.6   c-13.2-46.1-12.8-82.7-46.5-122.4c-16.8-19.9-21.2-23.3-27.7-45.3c-6.5-22.1-6.1-42.5-17.6-63.8c-11.3-21.1-29.6-29.8-42.2-47.2   c-9.4-13-12.3-32.3-21.1-46.3c-19.6-31.3-46.3-52.5-82.8-59.8c-85.1-17-200.6,39.6-280.8,68.3c-80.3,28.7-170.2,83.5-147.7,183.4   c4.7,20.9,13.4,39.6,28.8,54.5c8.1,7.8,35.6,15.7,39.6,25c4,9.2-7.3,41.7-5.1,55.2c3.8,23.4,16.5,49.4,34.2,65.6   c11.1,10.1,27.8,11.9,37,22.8c13.5,16.1,6.8,31.9,11,53.4c3.5,18.4,11,35.5,21.4,51c14.1,21,41.8,29.8,54.8,47.4   c18,24.4,7,66.4,44,91.3c43.4,29.3,107.4,11.3,153-3.7c28.4-9.4,64.2-32.8,84.4-20.9c15.3,9,28.9,45.8,44.7,59.4   c33.8,29.1,85.3,46.7,129.3,32.4C2983.4,3243.6,2981.1,3142.4,2970.5,3074.6z" origin_fill="#f9b098" isInit="true"></path>
	<g isInit="true">
		<path opacity="0.1" d="M2388.1,2960.1c-0.8-74.2,143.1-103.1,197.6-119.4c31-9.3,115.4-19.9,135.9-44    c27.7-32.5-15.9-32.3-36.9-27.6c-73,16.4-140.3,49.6-207,81.9c-29.4,14.3-65.9,28.9-88.3,53.9c-8.5,9.5-24.1,29.7-19,44.4    C2371.5,2952.6,2388.3,2978.2,2388.1,2960.1z" fill="#000000" origin_fill="#000000" isInit="true"></path>
	</g>
	<g opacity="0.1" isInit="true">
		<path d="M2469.8,3118.8c23.3-66.7,91.3-89.5,152.6-114.2c33.3-13.4,67.2-24.9,101.5-35.3c9.9-3,81.7-23.7,40.5-36.2    c-22.7-6.9-69.2,17.5-90.2,24.6c-37.9,12.9-74.9,28.4-110.7,46.3c-31.2,15.6-67.6,33-89.8,61c-6.9,8.7-18.6,23.1-19.2,34.8    C2454.9,3091.8,2459.2,3149.1,2469.8,3118.8z" fill="#000000" origin_fill="#000000" isInit="true"></path>
	</g>
	<g isInit="true">
		<path fill="#56332e" d="M880,1140.2c54.3-60,127.7-81.8,205.8-53.5c30.8,11.2,75,56.3,108.1,50.6c41.7-7.2,23.5-44.8,0.9-64.8    c-56.3-49.8-152.9-76.1-225.1-56.2c-33.5,9.2-65.5,28.6-88.2,55.1c-8.4,9.8-31.3,38.4-27.8,53.5    C856.3,1135.8,865.5,1156.3,880,1140.2z" origin_fill="#56332e" isInit="true"></path>
	</g>
	<g isInit="true">
		<path fill="#3d201b" d="M999.6,1384.7c32.1,3.3,69.4,12.6,97.7,27.9c21,11.3,81.9,44,64.4-14.6c-8.6-28.7-66.9-43.9-91.9-47.6    c-19.7-2.9-45.3-7.8-63.3,4.3C999.7,1359.4,968.4,1381.5,999.6,1384.7z" origin_fill="#3d201b" isInit="true"></path>
	</g>
	<path fill="#f9b098" d="M966.6,1622.1c64.9,181.1,300.7,19,205-122.2c-32.4-47.8-105-75.1-159.8-53.3   C938.4,1475.9,944.4,1560,966.6,1622.1z" origin_fill="#f9b098" isInit="true"></path>
	<path fill="#56332e" d="M2364.3,912.4c-8.8,96.5-26,193.7-66.1,282.5c-93.8-184.9-307.3-183.2-454.6-300.9   c-73.5-58.8-133.2-135.4-171.1-221.7c-30.3-69-29.7-213.5-120.8-229.8c-21.5-3.8-40.1,6-61.9-0.7c-18.4-5.7-27.2-20-47.5-22.8   c-52.6-7.3-86,42.3-92.3,87.3c-14.6,104.5-25.6,179.2-103.2,260c-24.1,25.2-216.1,190.9-245.5,146.4c-11.8-17.8,6.9-24,11.6-38   c8.3-25.1,13.5-45.7,14.5-72.4c2.1-58.8-5.1-118.1-11.7-176.3c43.7,171-177,268.1-193.5,426.1C699,853.6,792.1,641.6,921,473.9   c126.1-164.2,313.6-297.1,522.8-323.7c121.3-15.4,247.8,19.4,368.9,29.9c117.4,10.1,234.7,41.1,333.5,107.5   C2363,433.4,2386.2,673.7,2364.3,912.4z" origin_fill="#56332e" isInit="true"></path>
	<g opacity="0.2" isInit="true">
		<path d="M1341.4,232.1c-145.2,15.7-240.5,173.9-239.5,309.7c0.6,78.8,30.1,165.4,3.3,242.6c-10.8,31-29.7,51.6-53.7,72.4    c-23.1,20.1-46.7,40.3,6.4,36.7c63.5-4.3,100.2-78.5,108-132.9c11.1-76.7-21-148.4-23.5-224.2c-2.1-65.7,18.2-128.9,58.6-180.9    c23.1-29.8,52.3-54.6,83.6-75.4C1292.3,275.2,1364.3,229.6,1341.4,232.1z" fill="#000000" origin_fill="#000000" isInit="true"></path>
	</g>
	<g isInit="true">
		<path opacity="0.2" d="M1662.8,265.5c100.7-72.8,210.2,26.9,260.5,111.1c59.2,99.1,53.6,203.3,47.8,313.9    c-5.3,100.1,0.9,209.7,78,283.2c39.4,37.6,89.6,60.3,142.9,69.2c24.2,4.1,130.3,11.9,121.7-31.8c-4.1-20.7-124-29.3-144.3-36.4    c-46.4-16.4-85.9-44.1-110.5-87.4c-53.6-94.2-26.1-210.7-31.7-313.3c-5.8-108.4-49.5-212.2-127.8-288.5    c-37.4-36.4-84.3-68.8-137.9-72.8c-26.6-2-54.9,2.4-77.7,17.1C1676,234.9,1649.1,275.4,1662.8,265.5z" fill="#000000" origin_fill="#000000" isInit="true"></path>
	</g>
	<g isInit="true">
		<path opacity="0.2" d="M2164.9,438.3c2.5,84.8,29.6,165.5,79.3,234.4c15.8,21.9,129.4,143.8,162.6,83.9    c17.6-31.7-24.1-33.4-42.9-41.4c-45-19.3-75.2-51.7-102.7-91.6c-21.7-31.4-40.3-65.3-55.6-100.2c-8.9-20.4-14.2-44.8-24.2-64.5    C2181.9,459.9,2164.4,418.6,2164.9,438.3z" fill="#000000" origin_fill="#000000" isInit="true"></path>
	</g>
	<g isInit="true">
		<path opacity="0.2" d="M907.5,439.9c-100.8,75.4-89.1,216.4-108.6,327.1c-12.2,69.3-35.3,137.4-40.9,207.8    c-2.3,29.3-0.5,189.3,56.9,189.6c32.7,0.2-17.4-95.4-20.5-120.5c-8.2-68,14-136,28.8-201.5C841,763.7,840.9,687,849,607.3    C853.9,558.5,866.1,470.9,907.5,439.9z" fill="#000000" origin_fill="#000000" isInit="true"></path>
	</g>
	<path fill="#828487" d="M2262.2,1039.1c113.8,226.2,72.6,507.1-101.7,691c-176.2,185.9-458.1,240.8-691.3,135.5   c-227.4-102.7-372-342.5-356-591.7c16.3-254.8,195.7-477,441.4-546.6C1831.1,649,2133.1,782.5,2262.2,1039.1z" origin_fill="#828487" isInit="true"></path>
	<path fill="#f9b098" d="M2182.8,1079c97.1,193.1,61.9,432.7-86.7,589.7c-150.3,158.7-390.8,205.8-589.9,116   c-430.6-194.1-383.4-839.5,69.4-970.9C1812.4,745.1,2072,858.9,2182.8,1079z" origin_fill="#f9b098" isInit="true"></path>
	<path opacity="0.1" d="M1264.3,1311.2c9.7,49.6,5.1,98.9-9.4,146.8c-3.9,13-9.5,26.6-15.2,40.3c11.3,31.4,25.7,61.8,43.2,90.7   c15.7-29.4,22-80.1,26.1-104.7c8-46.8,13.2-97,8.1-144.4c-4.6-42.7-16.7-85.7-39.8-122.3c-9.1-14.4-23.3-37.5-40-45   c-2.1-1-5.6-2.1-9.6-3.1c-4.2,15.4-7.8,31-10.6,46.8C1237,1245.8,1256.2,1269.7,1264.3,1311.2z" fill="#000000" origin_fill="#000000" isInit="true"></path>
	<g isInit="true">
		<path fill="#3d201b" d="M1678.2,1268.1c-29.9,52.1-19.7,132.5,18.6,179.5c66.2,81.2,104.3-40.1,98.5-95.1    c-4.5-42.4-29-124.3-84.1-121.3c-76.2,4.1-42.4,118.2-30,159.8c19.1-11.1,38.1-22.2,57.2-33.3c-14.4-15.8-8.7-51.3-16.9-60.3    c-1.5,5.3-6,7.9-13.5,7.8c35.2-0.7,43.4-50,12.7-64.4c-41.2-19.2-65.2,36.1-67.1,66.1c-2,32,18.5,115.2,63.6,109.2    c50-6.6,26.8-101.2,17-130.2c2.7,17-23.6,14.1-31.5,11.7c3.3,14.4,17.7,30.2,21.9,46.2c1.4,5.4,2,69.7,0.3,68.7    c-6.4-4,30.4-4.9,30.5-4.9c-23.6-28.8-21.9-66.2-27.6-100.2C1724.8,1291,1703.3,1224.3,1678.2,1268.1z" origin_fill="#3d201b" isInit="true"></path>
	</g>
	<g isInit="true">
		<path fill="#56332e" d="M1427.8,1082.2c45.1-47.6,109-85.8,160.7-108.8c36.8-16.4,78-26.4,117.8-32.3    c28.1-4.2,154.9,13.3,184.6-15.7c56.3-54.9-142.8-74.3-168.6-72.4c-89.5,6.7-177.7,37.1-251.4,88.4c-31,21.6-77.6,54-95.6,88.1    C1356.3,1065.2,1390.4,1121.6,1427.8,1082.2z" origin_fill="#56332e" isInit="true"></path>
	</g>
	<path id="6ed6f04necsvgid_3_" fill="none" d="M2182.8,1079c97.1,193.1,61.9,432.7-86.7,589.7c-150.3,158.7-390.8,205.8-589.9,116   c-430.6-194.1-383.4-839.5,69.4-970.9C1812.4,745.1,2072,858.9,2182.8,1079z" isInit="true"></path>
	<g isInit="true">
		<path opacity="0.2" d="M1406.5,70.4c42.9,12.3,76.5-3.2,117,26.9c39.6,29.5,54.7,75.6,48.8,123.7c-5.2,42.4-26.9,75.2-47.1,111.4    c-10.3,18.4-40.6,122.5,9.4,90.7c2-1.3,22.4-54.1,25-58.7c13.6-24.1,30.3-45,40.7-71c19.3-48.3,20.1-100-3.6-146.8    c-22.6-44.6-62-78.8-110.8-90.9c-12.8-3.2-39.1-8.1-52.9-4.9C1432.5,50.8,1385.8,64.4,1406.5,70.4z" fill="#000000" origin_fill="#000000" isInit="true"></path>
	</g>
	<g isInit="true">
		<path fill="#f7ebe7" d="M2511.6,3247c-69.2,31.3-158,95.4-212.3,148.2c-67.1-100.6-168.9-189.9-264-263.2    c-20.8-16-47-41.5-74.8-43.2c-16.7-1-67.2,16.8-44.5,37.3c8.1,7.3,40.4,0.7,55.3,7.9c24.7,11.9,49.3,39.4,69.6,57.2    c49.2,43.1,95.5,88.8,139.5,137.1c29.3,32.2,71.9,110.8,117.6,113.3c49.6,2.7,125.9-72.8,165.9-99.9    c19.5-13.2,75.2-39.7,80.8-63.1C2549.3,3259.9,2537.1,3235.5,2511.6,3247z" origin_fill="#f7ebe7" isInit="true"></path>
		<path fill="#f7ebe7" d="M1823.3,3124.2c-102.7,73.9-223.8,168.1-296.8,273.2c-25.6-32-246.5-388.6-237.3-392.8    c-28.5,12.8,81.9,224.8,95.6,248.6c31.1,54.2,85,163.9,143.1,181.3c38.7,11.6,46.4-5.3,73.4-37c32.2-37.8,64-75.9,98.4-111.8    c34.1-35.5,71.5-67.5,105.8-102.7c8.8-9,23.5-20,28.5-31.3C1836.4,3145.9,1848.2,3106.3,1823.3,3124.2z" origin_fill="#f7ebe7" isInit="true"></path>
	</g>
	<g opacity="0.2" isInit="true">
		<path d="M1811.9,3478c19,4.5,230.1,12.6,199.1-32.5c-11.1-16.1-94.2,12.3-107.7,13.9c-23.1,2.8-55.2-4.8-76.3,1.3    C1828.4,3460.4,1782.8,3471.1,1811.9,3478z" fill="#000000" origin_fill="#000000" isInit="true"></path>
		<path d="M2022.9,4031.5c-56.1-81.6-105.3-168.4-144.1-259.6c-32.8-77-76.5-183.3-84-261c10,103.7,37.9,205.5,81.2,300.3    C1913.9,3894.3,1978,3966.2,2022.9,4031.5z" fill="#000000" origin_fill="#000000" isInit="true"></path>
	</g>
	<g isInit="true">
		<path fill="#232a34" d="M2197.1,4987.6c-48.1-5.1-51,68.3-6.1,78.1c41.1,9,68.8-39.6,49.6-73.9c-46.1-82.5-160.5,26.1-95.1,93.6    c102.4,105.5,168.4-143.8,37.4-107.7c-35.7,9.8-68.4,77.8-26.3,102c50.3,29,43.5-44.5,45-44.9c0.6,1.8,0.9,3.6,0.8,5.5    c0.1-0.5,0.4-0.7,0.6-1.1c-1.3,0.8-0.8,0.2,1.7-2c-1,0-6.1,2.8-5.8,1.5c-0.2,0.6,3,3,2.2,1.1c1.7,4-9.6,2.5-9.3,2.8    c-12.1-8.3,1.5-15.3,4.2-18.7c-1-1.2-0.6-7.4,0.9-8.3c-3.2,1.8,19.1,5,9.6,1.6c-0.5,3-2,5.4-4.6,7    C2221.7,5016.9,2217.7,4989.8,2197.1,4987.6z" origin_fill="#232a34" isInit="true"></path>
	</g>
	<g isInit="true">
		<path fill="#232a34" d="M2353,5860.6c-24.4,5.7-26.3,6.9-5.6,3.6c-52.3-10.6-51.5,68.8-12.2,86.2c42.5,18.9,88.2-20.2,79.2-64.6    c-17.9-88.2-157.6-43.9-122.8,41.9c36.8,90.9,163.1,24.1,113.3-54.6c-32.5-51.4-82.5-7-47.9,31.3c0,1,1.8,6.6-1.6,11.6    c3.1-4.6,2.9-1.6,3-2.6c-2-0.3-2.2-0.2-0.9,0.2c-23.5-5.7,0.9-16.8,1.8-18.6c-0.8,1.7-3.5,0.6-2.6,1.2c2.6,0.8,4.5,2.3,5.8,4.7    c-1.4,0.9-2.8-26.4-2.4-24C2347.8,5923.5,2387.3,5859,2353,5860.6z" origin_fill="#232a34" isInit="true"></path>
	</g>
	<g isInit="true">
		<path fill="#f26c4d" d="M249.9,1103.4c64.7,35.7,131.8,66.3,196.3,102.5c17.1,9.6,60.6,39.9,81.2,19.9c21.1-20.5-7.4-49-22-62.7    c-45.9-43.2-116.5-74.6-174.3-97.7c-21.5-8.6-60.2-28.9-82.2-13.5C231.1,1064.5,229.6,1092.2,249.9,1103.4z" origin_fill="#f26c4d" isInit="true"></path>
	</g>
	<g isInit="true">
		<path fill="#f26c4d" d="M273.6,1521.1c61,2.1,123.7-4.8,185-5.3c27.8-0.3,94.1,0.3,104.4-15c39.2-22.7-36.4-46.6-46-48.6    c-48.4-10.2-99.1-8-148.1-5.5c-27.8,1.4-94.7-4.3-116.6,17.4C232.7,1483.6,244,1520.1,273.6,1521.1z" origin_fill="#f26c4d" isInit="true"></path>
	</g>
	<g isInit="true">
		<path fill="#f26c4d" d="M600.7,1722.9c-55,12.6-111.8,64.1-158.5,94.2c-23.4,15.1-126.8,86.3-63.3,107.6    c44.6,15,128.7-66.5,161.4-89.7c23.9-17,58-35.4,77.1-58.4C632,1759.1,641.9,1713.4,600.7,1722.9z" origin_fill="#f26c4d" isInit="true"></path>
	</g>
	<g isInit="true">
		<path fill="#f9b098" d="M1441.8,2206.9c17.8,37.1,100.2,29.5,130.6,23.7c56.9-10.8,109.7-39.7,159.3-68.3    c50.5-29.1,98.8-62.1,144.8-97.9c19-14.7,107-70.2,99.7-99.5c-6.3-25.5-96.7,61.4-107,69.5c-45.4,35.8-93.4,68.1-143.2,97.6    c-48.9,29-101.8,61-158.1,73.4c-29.9,6.6-57.3,6.6-87.1,0.2C1478.3,2205.1,1431.5,2185.4,1441.8,2206.9z" origin_fill="#f9b098" isInit="true"></path>
	</g>
	<g isInit="true">
		<path fill="#454e5c" d="M4596.4,4037.3c-189.6-185.9-385.2-365.2-589.9-534.5c-100.9-83.4-203.9-164.3-308.4-243.2    c-100.2-75.6-233.4-144.1-307.5-245.3c-24.3-33.2-75.8-88.5-79.7-126.1c-1.8-17.2,6.6-41.3,6.4-60.3c-0.4-37.9-0.1-75.6,2.2-113.5    c7.9-130.4,33.2-259.1,77.1-382.1c41.8-117.3,100-227.8,170.7-330.2c9.9-14.4,68.5-84.7,38.3-87.7    c-26.4-2.6-85.7,100.6-96.7,117.1c-154.7,232-253.1,543.3-222.5,824.3c-59.8-106.6-100.4-223.1-116.2-344.5    c-7.7-59.3-9.8-119.5-5.2-179.2c1.2-15.5,25.1-136.6,11.4-140.3c-29.8-8.1-42.1,183-42.4,204.6c-1.1,77.9,9.5,155.9,29.3,231.2    c37,140.8,106.6,279.6,201.8,390.1c-85.9-60.3-172.6-119.4-260.9-176.1c-16.2-10.4-86.7-69.4-103.2-54.3    c-14.8,13.5,21.6,42.7,30.2,57.4c76.7,131,109.7,321.4-48.4,410.8c-35.4,20-75.4,28.8-116.1,27.8c-14.7-0.4-102.3-25.6-80.7,7.6    c38.1,58.8,173.2,20.9,218.1-4c143.8-79.8,182.8-285.8,85.7-417.7c315.1,213.3,618.9,439.5,909.4,685.3    c139.5,118.1,276.6,239.2,410.4,363.7c61,56.8,119.6,116.1,180.4,173c14.9,13.9,55.5,61.8,75,35.8    C4678.5,4108.8,4606.3,4047,4596.4,4037.3z" origin_fill="#454e5c" isInit="true"></path>
		<path fill="#454e5c" d="M4031.9,4817.5c-277.1-285.2-537.4-584.8-788.1-893.4c-129.5-159.4-253.2-322.9-376.1-487.4    c-27.1-36.2-54.1-72.4-81.4-108.4c-18.6-24.5-58-77.4-29.4-14.2c17.7,39.1,50.4,76,74.8,111.1c6.6,9.5,47.7,55.3,46.2,65.7    c-0.5,4-34.9,30.2-38.1,33c-45,38-142.1,100.8-83.4,166.9c29.3,33,77.4,44,104.5,81.3c30.1,41.4-3.9,58.2-35.3,89.2    c-141.9,140.2-283.9,280.3-426,420.3c-68,67-136,133.8-203.3,201.5c-18,18.1-183.6,164.4-168.1,187    c21,30.6,137.7-100.8,156.7-118.9c71.1-67.7,141.4-136.2,211.6-204.8c155.7-152.2,310-306.2,467.5-456.5    c33.3-31.7,73.2-62.1,57.3-113.4c-11.2-36.2-47.6-67.2-76-90.2c-35.9-29.1-55.5-22.7-38.2-62.7c17.8-41.3,67.8-68,87.3-109.6    c205.9,286.1,423.6,565.9,654.9,831.9c114,131.1,230.5,260.2,347.7,388.3c50.5,55.2,100.9,123.6,160.7,168.7    c16.2,12.2,41.9,29,43.4-3.6C4102.2,4877.5,4045,4831,4031.9,4817.5z" origin_fill="#454e5c" isInit="true"></path>
		<path fill="#454e5c" d="M4749.5,4116.2c-63-93.1-137.1-181.7-230.9-245.2c-34.4-23.3-81.6-57.3-123.7-63.2    c-75.4-10.5,37.6,33.3,56.8,44.3c88.5,50.5,162.1,122,224,202.3c24.4,31.7,51.7,98.8,83.9,122.5    C4808.5,4212.8,4759,4130.2,4749.5,4116.2z" origin_fill="#454e5c" isInit="true"></path>
		<path fill="#454e5c" d="M1085.8,3755.8c-40.7,78.1-85.8,163.8-64,254.5c17.6,73.4,71.6,130.5,127.2,178.3    c142.8,122.7,294.9,235.7,441.8,353.5c33.9,27.1,67.9,54.2,102.3,80.6c21.5,16.5,77.5,76.1,104.8,76.9    c61.1,1.9,4.9-47.7-15.4-64.9c-39.6-33.6-80.4-66-121.4-98c-147-114.7-294.4-229-441.9-343c-58.1-44.9-134-96.4-156.8-170.9    c-25.6-83.7,22.9-167.5,58.5-239.9c26.4-53.8,102.2-195.1,53.5-255.8c-22.5-28-64.6-12.7-97.5-10.1    c-21.3,1.7-136.4,26.1-153.7,12.9c-17.5-13.4-15.9-109.6-18.7-134.3c-6.2-53.9-10.8-108-13.7-162.2c-5.4-99.3-5.4-198.9,0.3-298.2    c5.1-87.9,15.1-175.6,26.3-262.9c3.5-27.5,7.8-97.8-13.4-29.4c-15.6,50.2-22.9,104.6-30.3,156.4c-29.5,208-32,421-7,629.6    c3.6,29.6,0.4,119.5,26.5,139.7c24.3,18.7,109.2-2.7,141.7-5c21.3-1.5,56.7-10.6,77.4-5.8c23.8-10.7,33.5-3.6,29.2,21.2    c0,7.7,0,15.5,0.1,23.2C1138.8,3657.1,1110.6,3708.1,1085.8,3755.8z" origin_fill="#454e5c" isInit="true"></path>
		<path fill="#454e5c" d="M186.8,3444.1c33,176.1,85.8,349.8,143,519.3c28.8,85.5,59.4,170.4,91.9,254.5    c6.1,15.8,49.7,148.4,69.4,109.2c9.6-19.2-28.2-82.6-35-100.1c-16.9-43-33.2-86.1-48.9-129.5c-31.1-86.1-59.3-173.3-85.8-261    c-13.3-44-119.3-501.6-143.2-499.2C166.8,3338.4,184.9,3434,186.8,3444.1z" origin_fill="#454e5c" isInit="true"></path>
		<path fill="#454e5c" d="M814.3,5717.1c-61.6-262.5-127.1-524-190.7-786c-30.8-126.9-63.6-253.9-87.9-382.2    c-10.4-54.5-14.1-113.5-28.1-167c-21.5-82.1-21,38-19.7,67.6c-21.9-47.9-347.8-471.4-338.8-476.7    c-22.8,13.4,235.4,390.9,260.6,423.8c20.6,26.8,45.7,49.9,66.5,75.7c12.2-3.2,17,1.2,14.3,13.2c1.1,12.1,2.7,24.1,4.8,36.1    c3.1,20,7.1,39.8,10.9,59.7c17.3,90.9,41.2,180,64.8,269.4c97.7,369.4,170.7,744.9,268.9,1114.2    c-39.3-17.8-443.7-184.6-447.7-168.6c-3.1,12.5,231.3,101.8,253.7,111.4c42.2,18,84.1,36.4,125.8,55.4    c16.7,7.6,37.6,14.7,53.2,24.7c31,19.9,9.7-6,29.7,32c12,22.8,8.2,91.6,34.9,99.6c29.1,8.7-1.2-79.8-4.1-92.4    C861.5,5923.6,838.5,5820.2,814.3,5717.1z" origin_fill="#454e5c" isInit="true"></path>
		<path fill="#454e5c" d="M698.4,6002.5c-114-10.5-233.4,2.5-345.5,23.7c-38.9,7.3-113.2,13.9-146.5,40    c-56.9,44.6,39,28.5,61.7,24.7c110.4-18.5,220.2-35,332.3-38.6c37.1-1.2,118.6,15.2,148.5-7    C790.4,6014.4,720.9,6004.6,698.4,6002.5z" origin_fill="#454e5c" isInit="true"></path>
		<path fill="#454e5c" d="M2102.3,5550.6c-47.7-227.3-109-454.9-145.6-684.1c-4.7-29.7-7.8-59.6-8.9-89.7    c-0.5-14.9,8.9-66.5,1.2-77.4c-30.3-43.5-33.6,76.8-33.5,95.3c0.8,112.7,28.9,226.8,53.1,336.3c24.9,112.4,49,225,73.7,337.4    c12.6,57.2,25.2,114.4,37.8,171.6c5.8,26.4,11.6,52.8,17.4,79.2c2.8,12.6,25.4,75.2,19,87.6c-30.7,59.8-234.9-113.1-266.6-136.4    c-91.9-67.4-182.3-136.9-270.6-208.9c-203.4-166-394.2-347.2-571-541.1c167.4,183.5,340.8,368.9,531.5,534.9    c95.6,83.1,194.1,162.9,295.7,238.5c57.7,42.9,210,194,287.2,141.6c16.2,75.2,32.5,150.3,48.7,225.5c3.4,15.5,6,78.7,38.5,60.9    c23-12.7-1.2-70.2-4.7-86.4C2170.6,5873.7,2136.1,5712.2,2102.3,5550.6z" origin_fill="#454e5c" isInit="true"></path>
		<path fill="#454e5c" d="M3189,3576.8c1.4-9.9,20.7-68.5,25.3-96c8.7-53.1,14.6-106.6,16.9-160.4c0.9-21.2,4.8-285.5-22.1-281.7    c-14.5,2.1,1.3,219.6,1,239.6C3208.8,3378,3202.6,3478.1,3189,3576.8z" origin_fill="#454e5c" isInit="true"></path>
		<path fill="#454e5c" d="M3433,6064.9c-117-69.8-246.5-120.4-366.6-185.1c-120.4-64.8-237.8-135.1-351.7-210.7    c-114.3-75.7-225.3-156.5-332.9-241.4c-50.1-39.6-101.3-79-149.4-121.1c-9.5-8.3-91.2-113.7-80.2-115.2    c-27.7,3.6,63.2,126.5,71.4,135c47.8,49,103,91.8,156.2,134.8c112.4,90.7,229.9,175.1,350.9,254    c117.4,76.5,238.3,147.5,362.3,212.8c59.7,31.5,120.3,61.3,181.6,89.6c30.6,14.1,61.3,28.4,92.7,40.6c12.7,4.9,34,17.2,47.7,16.7    C3408,6075,3457.1,6079.2,3433,6064.9z" origin_fill="#454e5c" isInit="true"></path>
	</g>
	<g opacity="0.7" isInit="true">
		<path opacity="0.2" fill="#ffffff" d="M1680.7,1748.5c103.3,56.8,254.4-8.9,339.4-74.3c45.9-35.3,82.1-75.9,108.4-127.4    c6.4-12.5,68.9-150.4,44-157.4c-4.3-1.2-71.8,122.3-81.9,135.3c-34.1,43.5-74.3,85.6-118.3,119c-47.6,36-100.4,68.3-157.5,86.6    c-27.8,8.9-57.8,16.3-87.2,16.1C1726.3,1746.3,1666.8,1740.9,1680.7,1748.5z" origin_fill="#ffffff" isInit="true"></path>
	</g>
	<g opacity="0.7" isInit="true">
		<path opacity="0.2" fill="#ffffff" d="M1294,1084.5c-34.3,40.5-55.2,88.4-65.6,140.1c-2.1,10.6-20.4,134.5,10,130.5    c15.9-2.1,13-123.1,15.2-136.2c5-30.2,13.3-60.3,26-88.2C1280.4,1128.8,1305.7,1070.7,1294,1084.5z" origin_fill="#ffffff" isInit="true"></path>
	</g>
</g>
<g opacity="0.2" isInit="true">
	<path d="M1441.8,2206.9c17.8,37.1,100.2,29.5,130.6,23.7c56.9-10.8,109.7-39.7,159.3-68.3c50.5-29.1,98.8-62.1,144.8-97.9   c19-14.7,107-70.2,99.7-99.5c-6.3-25.5-96.7,61.4-107,69.5c-45.4,35.8-93.4,68.1-143.2,97.6c-48.9,29-101.8,61-158.1,73.4   c-29.9,6.6-57.3,6.6-87.1,0.2C1478.3,2205.1,1431.5,2185.4,1441.8,2206.9z" fill="#000000" origin_fill="#000000" isInit="true"></path>
</g>
<g opacity="0.2" isInit="true">
	<path d="M4596.4,4037.3c-189.6-185.9-385.2-365.2-589.9-534.5c-100.9-83.4-203.9-164.3-308.4-243.2   c-100.2-75.6-233.4-144.1-307.5-245.3c-24.3-33.2-75.8-88.5-79.7-126.1c-1.8-17.2,6.6-41.3,6.4-60.3c-0.4-37.9-0.1-75.6,2.2-113.5   c7.9-130.4,33.2-259.1,77.1-382.1c41.8-117.3,100-227.8,170.7-330.2c9.9-14.4,68.5-84.7,38.3-87.7c-26.4-2.6-85.7,100.6-96.7,117.1   c-154.7,232-253.1,543.3-222.5,824.3c-59.8-106.6-100.4-223.1-116.2-344.5c-7.7-59.3-9.8-119.5-5.2-179.2   c1.2-15.5,25.1-136.6,11.4-140.3c-29.8-8.1-42.1,183-42.4,204.6c-1.1,77.9,9.5,155.9,29.3,231.2c37,140.8,106.6,279.6,201.8,390.1   c-85.9-60.3-172.6-119.4-260.9-176.1c-16.2-10.4-86.7-69.4-103.2-54.3c-14.8,13.5,21.6,42.7,30.2,57.4   c76.7,131,109.7,321.4-48.4,410.8c-35.4,20-75.4,28.8-116.1,27.8c-14.7-0.4-102.3-25.6-80.7,7.6c38.1,58.8,173.2,20.9,218.1-4   c143.8-79.8,182.8-285.8,85.7-417.7c315.1,213.3,618.9,439.5,909.4,685.3c139.5,118.1,276.6,239.2,410.4,363.7   c61,56.8,119.6,116.1,180.4,173c14.9,13.9,55.5,61.8,75,35.8C4678.5,4108.8,4606.3,4047,4596.4,4037.3z" fill="#000000" origin_fill="#000000" isInit="true"></path>
	<path d="M4031.9,4817.5c-277.1-285.2-537.4-584.8-788.1-893.4c-129.5-159.4-253.2-322.9-376.1-487.4   c-27.1-36.2-54.1-72.4-81.4-108.4c-18.6-24.5-58-77.4-29.4-14.2c17.7,39.1,50.4,76,74.8,111.1c6.6,9.5,47.7,55.3,46.2,65.7   c-0.5,4-34.9,30.2-38.1,33c-45,38-142.1,100.8-83.4,166.9c29.3,33,77.4,44,104.5,81.3c30.1,41.4-3.9,58.2-35.3,89.2   c-141.9,140.2-283.9,280.3-426,420.3c-68,67-136,133.8-203.3,201.5c-18,18.1-183.6,164.4-168.1,187   c21,30.6,137.7-100.8,156.7-118.9c71.1-67.7,141.4-136.2,211.6-204.8c155.7-152.2,310-306.2,467.5-456.5   c33.3-31.7,73.2-62.1,57.3-113.4c-11.2-36.2-47.6-67.2-76-90.2c-35.9-29.1-55.5-22.7-38.2-62.7c17.8-41.3,67.8-68,87.3-109.6   c205.9,286.1,423.6,565.9,654.9,831.9c114,131.1,230.5,260.2,347.7,388.3c50.5,55.2,100.9,123.6,160.7,168.7   c16.2,12.2,41.9,29,43.4-3.6C4102.2,4877.5,4045,4831,4031.9,4817.5z" fill="#000000" origin_fill="#000000" isInit="true"></path>
	<path d="M4749.5,4116.2c-63-93.1-137.1-181.7-230.9-245.2c-34.4-23.3-81.6-57.3-123.7-63.2c-75.4-10.5,37.6,33.3,56.8,44.3   c88.5,50.5,162.1,122,224,202.3c24.4,31.7,51.7,98.8,83.9,122.5C4808.5,4212.8,4759,4130.2,4749.5,4116.2z" fill="#000000" origin_fill="#000000" isInit="true"></path>
	<path d="M1085.8,3755.8c-40.7,78.1-85.8,163.8-64,254.5c17.6,73.4,71.6,130.5,127.2,178.3c142.8,122.7,294.9,235.7,441.8,353.5   c33.9,27.1,67.9,54.2,102.3,80.6c21.5,16.5,77.5,76.1,104.8,76.9c61.1,1.9,4.9-47.7-15.4-64.9c-39.6-33.6-80.4-66-121.4-98   c-147-114.7-294.4-229-441.9-343c-58.1-44.9-134-96.4-156.8-170.9c-25.6-83.7,22.9-167.5,58.5-239.9   c26.4-53.8,102.2-195.1,53.5-255.8c-22.5-28-64.6-12.7-97.5-10.1c-21.3,1.7-136.4,26.1-153.7,12.9   c-17.5-13.4-15.9-109.6-18.7-134.3c-6.2-53.9-10.8-108-13.7-162.2c-5.4-99.3-5.4-198.9,0.3-298.2c5.1-87.9,15.1-175.6,26.3-262.9   c3.5-27.5,7.8-97.8-13.4-29.4c-15.6,50.2-22.9,104.6-30.3,156.4c-29.5,208-32,421-7,629.6c3.6,29.6,0.4,119.5,26.5,139.7   c24.3,18.7,109.2-2.7,141.7-5c21.3-1.5,56.7-10.6,77.4-5.8c23.8-10.7,33.5-3.6,29.2,21.2c0,7.7,0,15.5,0.1,23.2   C1138.8,3657.1,1110.6,3708.1,1085.8,3755.8z" fill="#000000" origin_fill="#000000" isInit="true"></path>
	<path d="M186.8,3444.1c33,176.1,85.8,349.8,143,519.3c28.8,85.5,59.4,170.4,91.9,254.5c6.1,15.8,49.7,148.4,69.4,109.2   c9.6-19.2-28.2-82.6-35-100.1c-16.9-43-33.2-86.1-48.9-129.5c-31.1-86.1-59.3-173.3-85.8-261c-13.3-44-119.3-501.6-143.2-499.2   C166.8,3338.4,184.9,3434,186.8,3444.1z" fill="#000000" origin_fill="#000000" isInit="true"></path>
	<path d="M814.3,5717.1c-61.6-262.5-127.1-524-190.7-786c-30.8-126.9-63.6-253.9-87.9-382.2c-10.4-54.5-14.1-113.5-28.1-167   c-21.5-82.1-21,38-19.7,67.6c-21.9-47.9-347.8-471.4-338.8-476.7c-22.8,13.4,235.4,390.9,260.6,423.8   c20.6,26.8,45.7,49.9,66.5,75.7c12.2-3.2,17,1.2,14.3,13.2c1.1,12.1,2.7,24.1,4.8,36.1c3.1,20,7.1,39.8,10.9,59.7   c17.3,90.9,41.2,180,64.8,269.4c97.7,369.4,170.7,744.9,268.9,1114.2c-39.3-17.8-443.7-184.6-447.7-168.6   c-3.1,12.5,231.3,101.8,253.7,111.4c42.2,18,84.1,36.4,125.8,55.4c16.7,7.6,37.6,14.7,53.2,24.7c31,19.9,9.7-6,29.7,32   c12,22.8,8.2,91.6,34.9,99.6c29.1,8.7-1.2-79.8-4.1-92.4C861.5,5923.6,838.5,5820.2,814.3,5717.1z" fill="#000000" origin_fill="#000000" isInit="true"></path>
	<path d="M698.4,6002.5c-114-10.5-233.4,2.5-345.5,23.7c-38.9,7.3-113.2,13.9-146.5,40c-56.9,44.6,39,28.5,61.7,24.7   c110.4-18.5,220.2-35,332.3-38.6c37.1-1.2,118.6,15.2,148.5-7C790.4,6014.4,720.9,6004.6,698.4,6002.5z" fill="#000000" origin_fill="#000000" isInit="true"></path>
	<path d="M2102.3,5550.6c-47.7-227.3-109-454.9-145.6-684.1c-4.7-29.7-7.8-59.6-8.9-89.7c-0.5-14.9,8.9-66.5,1.2-77.4   c-30.3-43.5-33.6,76.8-33.5,95.3c0.8,112.7,28.9,226.8,53.1,336.3c24.9,112.4,49,225,73.7,337.4c12.6,57.2,25.2,114.4,37.8,171.6   c5.8,26.4,11.6,52.8,17.4,79.2c2.8,12.6,25.4,75.2,19,87.6c-30.7,59.8-234.9-113.1-266.6-136.4c-91.9-67.4-182.3-136.9-270.6-208.9   c-203.4-166-394.2-347.2-571-541.1c167.4,183.5,340.8,368.9,531.5,534.9c95.6,83.1,194.1,162.9,295.7,238.5   c57.7,42.9,210,194,287.2,141.6c16.2,75.2,32.5,150.3,48.7,225.5c3.4,15.5,6,78.7,38.5,60.9c23-12.7-1.2-70.2-4.7-86.4   C2170.6,5873.7,2136.1,5712.2,2102.3,5550.6z" fill="#000000" origin_fill="#000000" isInit="true"></path>
	<path d="M3189,3576.8c1.4-9.9,20.7-68.5,25.3-96c8.7-53.1,14.6-106.6,16.9-160.4c0.9-21.2,4.8-285.5-22.1-281.7   c-14.5,2.1,1.3,219.6,1,239.6C3208.8,3378,3202.6,3478.1,3189,3576.8z" fill="#000000" origin_fill="#000000" isInit="true"></path>
	<path d="M3433,6064.9c-117-69.8-246.5-120.4-366.6-185.1c-120.4-64.8-237.8-135.1-351.7-210.7c-114.3-75.7-225.3-156.5-332.9-241.4   c-50.1-39.6-101.3-79-149.4-121.1c-9.5-8.3-91.2-113.7-80.2-115.2c-27.7,3.6,63.2,126.5,71.4,135c47.8,49,103,91.8,156.2,134.8   c112.4,90.7,229.9,175.1,350.9,254c117.4,76.5,238.3,147.5,362.3,212.8c59.7,31.5,120.3,61.3,181.6,89.6   c30.6,14.1,61.3,28.4,92.7,40.6c12.7,4.9,34,17.2,47.7,16.7C3408,6075,3457.1,6079.2,3433,6064.9z" fill="#000000" origin_fill="#000000" isInit="true"></path>
</g>
<g isInit="true">
	<path fill="#f9b098" d="M2631,2607.3c-80.7,9.9-165.1,28.4-239.7,64.5c-34.9,16.9-66.4,39.6-89.2,71.2   c-2.3,3.1-52.9,86.5-14.1,75.3c22.5-6.5,22.4-42.2,38.5-60.8c28.2-32.4,72.6-50.7,111.9-65.5c48.5-18.3,101-28.1,148.2-49.6   C2593.4,2639.3,2643.6,2605.8,2631,2607.3z" origin_fill="#f9b098" isInit="true"></path>
</g>
<g opacity="0.1" isInit="true">
	<path d="M2631,2607.3c-80.7,9.9-165.1,28.4-239.7,64.5c-34.9,16.9-66.4,39.6-89.2,71.2c-2.3,3.1-52.9,86.5-14.1,75.3   c22.5-6.5,22.4-42.2,38.5-60.8c28.2-32.4,72.6-50.7,111.9-65.5c48.5-18.3,101-28.1,148.2-49.6   C2593.4,2639.3,2643.6,2605.8,2631,2607.3z" fill="#000000" origin_fill="#000000" isInit="true"></path>
</g>
<g opacity="0.2" isInit="true">
	<path d="M2511.6,3247c-69.2,31.3-158,95.4-212.3,148.2c-67.1-100.6-168.9-189.9-264-263.2c-20.8-16-47-41.5-74.8-43.2   c-16.7-1-67.2,16.8-44.5,37.3c8.1,7.3,40.4,0.7,55.3,7.9c24.7,11.9,49.3,39.4,69.6,57.2c49.2,43.1,95.5,88.8,139.5,137.1   c29.3,32.2,71.9,110.8,117.6,113.3c49.6,2.7,125.9-72.8,165.9-99.9c19.5-13.2,75.2-39.7,80.8-63.1   C2549.3,3259.9,2537.1,3235.5,2511.6,3247z" fill="#000000" origin_fill="#000000" isInit="true"></path>
	<path d="M1823.3,3124.2c-102.7,73.9-223.8,168.1-296.8,273.2c-25.6-32-246.5-388.6-237.3-392.8c-28.5,12.8,81.9,224.8,95.6,248.6   c31.1,54.2,85,163.9,143.1,181.3c38.7,11.6,46.4-5.3,73.4-37c32.2-37.8,64-75.9,98.4-111.8c34.1-35.5,71.5-67.5,105.8-102.7   c8.8-9,23.5-20,28.5-31.3C1836.4,3145.9,1848.2,3106.3,1823.3,3124.2z" fill="#000000" origin_fill="#000000" isInit="true"></path>
</g>
</svg>