    <svg
      xmlns="http://www.w3.org/2000/svg"
      xmlns:xlink="http://www.w3.org/1999/xlink"
      version="1.1"
      id="gsemvs8qv6"
      x="0px"
      y="0px"
      width="100%"
      height="100%"
      viewBox="0 0 201.167 201.151"
      enable-background="new 0 0 201.167 201.151"
      xml:space="preserve"
      isInit="true"
      preserveAspectRatio="none"
      opacity="1"
      style="display: block; overflow: hidden; position: absolute; left: 0px; top: 0px;"
    >
      <g isInit="true">
        <path
          fill-rule="evenodd"
          clip-rule="evenodd"
          fill="#ffffff"
          d="M67.204,184.999l80.43,8.587c0,0,21.003,8.166,33.778,5.052   c12.772-3.114,21.178-14.783,18.62-30.509c-2.556-15.727-16.725-59.798-29.022-72.113c-12.296-12.313-43.386-20.9-43.386-20.9   s-3.695-3.91-4.954-7.528c-1.258-3.617-1.188-7.131-1.188-7.131s5.313-3.467,5.548-6.736c0.233-3.271,1.782-3.071,1.782-3.071   s9.259-15.835,0.1-27.637c-9.16-11.801-10.401-9.608-10.401-9.608l3.171-7.33l-5.747,2.674l-2.574-8.121l-2.874,7.33   c0,0-18.186-5.854-28.131,2.972c-9.945,8.825-10.247,14.634-13.57,15.75c-3.324,1.115-6.537,1.089-6.537,1.089l2.971,5.646   l-6.34,2.477c0,0,5.9,4.742,8.618,5.447c2.718,0.707,4.954,2.675,4.954,2.675s1.452,10.659,5.348,19.415   c3.617,8.127,9.312,12.778,9.312,12.778s-15.43,1.176-21.099,5.25c-5.67,4.075-19.713,18.028-19.713,18.028   s-0.831-6.422-0.891-10.005c-0.06-3.583,2.771-12.96,0.99-13.57c-1.78-0.611-2.773-0.099-2.773-0.099L32.53,88.785   c0,0-28.169-8.267-30.112-5.646c-1.942,2.619,0.198,6.042,0.198,6.042s-0.453,2.128-0.594,3.864   c-0.141,1.737,0.793,3.961,0.793,3.961s-0.383,1.083,0.396,3.27c0.78,2.188,1.684,3.666,1.684,3.666s-1.169,6.927,3.962,11.392   c5.132,4.463,10.339,7.349,9.807,8.617s-9.142,16.582-11.689,27.834c-2.546,11.253-4.463,23.575,6.142,28.925   c10.605,5.35,23.884,0.553,31.104-4.655c7.22-5.209,20.504-27.835,20.504-27.835L67.204,184.999z"
          origin_fill="#ffffff"
          isInit="true"
        ></path>
        <path
          fill-rule="evenodd"
          clip-rule="evenodd"
          fill="#ffe380"
          d="M12.499,145.981c0,0,4.236,5.313,11.312,4.45   c7.076-0.863,14.092-5.841,14.092-5.841s5.517-13.899,6.677-17.615c1.159-3.717,1.298-15.762,1.298-15.762   S58.63,88.038,69.241,84.327c10.923-3.82,21.417-3.338,21.417-3.338s0.601,18.162,18.729,16.873   c18.126-1.289,29.11-14.647,29.11-14.647s24.279,8.42,33.841,22.344c9.563,13.923,22.025,42.499,23.154,63.39   c1.019,18.846-2.67,24.669-12.77,28.859c-10.924,4.533-24.385-0.741-24.385-0.741s4.429-8.133,5.008-14.556   c0.577-6.423-0.835-17.152-0.835-17.152l-6.953-3.431l-29.391-6.305c0,0-0.997-21.021-7.694-26.33   c-6.699-5.31-13.073-2.503-13.073-2.503l-13.629,1.298l-3.617,5.284l-5.562,14.835l10.477,13.998l18.82,5.656   c0,0-0.739,3.832,0.928,5.841c1.666,2.01,24.109,15.41,26.423,16.132c2.313,0.724,3.615,4.358,3.615,4.358l-77.323-9.179   l-0.649-37.456c0,0-10.802,24.027-23.085,30.132c-12.285,6.103-30.933,10.629-37.828-5.377c-3.763-8.736,5.47-29.854,5.47-29.854   L12.499,145.981z"
          origin_fill="#ffe380"
          isInit="true"
        ></path>
        <path
          fill-rule="evenodd"
          clip-rule="evenodd"
          d="M71.757,41.337l-8.322-5.35l6.539-0.692L67.3,31.433c0,0,4.052,0.011,6.241-3.964   C75.727,23.496,83.734,8.224,98.6,9.54c10.266,0.909,11.096,2.278,11.096,2.278l2.971-7.627l1.287,5.845   c0,0,7.178-3.446,6.836-2.873c-0.343,0.574-2.675,6.438-2.675,6.438s13.912,11.813,13.373,21.495   c-0.54,9.682-3.666,17.335-3.666,17.335s-3.239-5.68-5.942-4.557c-2.703,1.122-3.962,4.655-3.962,4.655l-2.775,3.962l-5.052-17.037   c0,0-0.247-6.435-4.853-6.438c-4.608-0.003-10.498,3.948-16.918,5.803c-6.43,1.857-14.087-1.642-14.087-1.642L71.757,41.337z"
          fill="#000000"
          origin_fill="#000000"
          isInit="true"
        ></path>
        <path
          fill-rule="evenodd"
          clip-rule="evenodd"
          d="M100.626,53.115c1.144-0.307,2.32,0.372,2.626,1.517l0.793,2.96   c0.307,1.144-0.372,2.319-1.517,2.626c-1.145,0.308-2.32-0.372-2.626-1.517l-0.794-2.959   C98.802,54.598,99.481,53.422,100.626,53.115z"
          fill="#000000"
          origin_fill="#000000"
          isInit="true"
        ></path>
        <path
          fill-rule="evenodd"
          clip-rule="evenodd"
          d="M82.548,52.91c1.144-0.306,2.32,0.373,2.627,1.518l0.792,2.959   c0.307,1.145-0.372,2.32-1.516,2.628c-1.145,0.306-2.32-0.373-2.627-1.518l-0.793-2.959C80.726,54.394,81.405,53.218,82.548,52.91z   "
          fill="#000000"
          origin_fill="#000000"
          isInit="true"
        ></path>
        <g isInit="true">
          <g isInit="true">
            <path
              fill-rule="evenodd"
              clip-rule="evenodd"
              fill="#ffffff"
              d="M10.973,70.887h24.521c1.855,0,3.359,1.343,3.359,3.001     l-2.591,34.578c0,0.827-0.628,1.5-1.402,1.5H13.128c-0.774,0-0.463-1.354-0.463-2.183l-1.427-4.13l0.398-3.667l-1.842-8.188     L7.614,73.888C7.614,72.229,9.118,70.887,10.973,70.887z"
              origin_fill="#ffffff"
              isInit="true"
            ></path>
          </g>
          <g isInit="true">
            <g isInit="true">
              <path
                d="M34.861,111.218H13.128c-0.486,0-0.93-0.189-1.248-0.531c-0.617-0.664-0.549-1.625-0.494-2.399      c0.009-0.106,0.016-0.211,0.021-0.311l-1.444-4.18l0.407-3.738l-1.818-8.107L6.361,73.888c0-2.346,2.069-4.253,4.612-4.253      h24.521c2.543,0,4.612,1.907,4.612,4.253l-2.595,34.671C37.515,109.983,36.323,111.218,34.861,111.218z M13.867,108.713h20.994      c0.06,0,0.149-0.098,0.149-0.247l2.595-34.672c-0.003-0.87-0.948-1.655-2.111-1.655H10.973c-1.136,0-2.065,0.75-2.106,1.684      l2.163,17.763l1.873,8.33l-0.39,3.595l1.404,4.063v0.211c0,0.206-0.016,0.44-0.034,0.683      C13.879,108.537,13.873,108.625,13.867,108.713z"
                fill="#000000"
                origin_fill="#000000"
                isInit="true"
              ></path>
            </g>
          </g>
        </g>
        <path
          fill-rule="evenodd"
          clip-rule="evenodd"
          fill="#ffe380"
          d="M10.101,85.625l26.987,0.287l-1.177,12.871l-24.205-0.025   L10.101,85.625z"
          origin_fill="#ffe380"
          isInit="true"
        ></path>
        <g isInit="true">
          <path
            fill-rule="evenodd"
            clip-rule="evenodd"
            d="M115.041,7.468c1.118-0.275,2.235-0.997,3.523-1.668    c1.016-0.531,4.178-2.627,4.728-0.557c0.315,1.186-0.925,2.889-1.484,3.986c-0.721,1.417-1.29,2.565-1.854,3.614    c5.566,5.28,11.532,11.453,13.164,20.767c1.342,7.658-1.602,15.031-4.542,20.209c-1.663,2.924-2.719,5.831-5.84,7.23    c0.204,6.16,2.477,10.254,5.932,13.164c2.864,0.154,5.574,1.215,8.157,2.132c17.927,6.365,33.163,15.313,42.736,30.221    c2.688,4.185,4.879,8.979,7.045,13.813c4.307,9.607,8.428,19.283,11.311,30.405c1.443,5.568,2.806,11.459,3.151,17.706    c0.805,14.536-3.254,23.687-12.7,28.831c-4.627,2.521-10.169,4.059-17.057,3.801c-6.569-0.245-12.086-1.607-17.428-3.43    c-10.09-3.442-19.522-8.31-28.368-13.35c-4.082-2.326-9.151-4.973-12.328-8.528c-1.66-1.856-2.902-4.22-3.245-7.139    c-0.391-3.329,0.163-6.146,0.927-9.27c-4.87-1.144-9.16,2.155-13.905,1.668c-2.022-0.207-4.436-1.475-3.801-4.356    c-3.546-0.065-5.979-4.105-3.894-7.23c-1.233-1.314-3.072-2.015-2.688-4.82c0.402-2.938,3.392-5.298,6.119-6.675    c3.09-1.562,6.688-2.435,10.013-2.781c-2.886-1.145-6.323,0.115-8.993-0.186c-3.621-0.406-7.003-5.629-2.967-7.88    c3.396-1.894,10.534-1.846,15.575-1.576c8.561,0.458,14.627,2.563,17.613,8.344c1.059,2.048,1.343,4.263,1.668,6.952    c0.604,4.977,1.648,9.673,2.782,14.461c8.686,1.821,17.521,3.491,26.327,5.192c-1.869-8.34-4.954-17.207-8.065-25.216    c-0.473-1.215-2.092-4.237,0.186-4.356c1.267-0.066,1.618,1.593,2.133,2.874c2.364,5.892,4.633,12.086,6.487,18.541    c0.745,2.588,1.738,5.247,2.134,7.786c0.089,0.569,0.091,1.095-0.093,1.576c3.005,0.996,7.114,2.106,11.124,2.781    c1.319,0.222,2.902,0.297,2.966,1.576c0.14,2.78-4.964,0.634-6.488,0.556c0.886,5.091,1.084,11.894,0,16.965    c-1.094,5.115-3.454,9.292-5.841,12.793c7.113,2.226,16.554,2.625,23.268,0.371c6.615-2.222,11.779-6.342,14.092-12.7    c2.48-6.82,1.947-16.132,0.557-23.824c-2.745-15.186-7.947-27.479-13.627-39.956c-2.78-6.106-5.827-12.258-9.733-17.057    c-8.056-9.888-19.025-16.627-31.613-21.971c-3.152,2.757-6.346,5.784-10.011,8.437c-3.506,2.537-7.531,4.891-11.866,6.581    c-4.383,1.712-10.284,3.119-15.667,2.226c-8.778-1.458-14.852-6.741-15.389-16.778c-0.036-0.675-0.123-1.474,0.279-2.133    c-0.862-0.903-2.1-0.57-3.246-0.557c-9.302,0.116-16.841,1.92-22.99,5.747c-5.742,3.576-10.364,8.96-14.183,14.833    c-0.545,0.839-1.428,1.819-1.576,2.503c-0.244,1.122-0.013,2.568-0.093,3.801c-0.532,8.275-2.002,15.802-3.522,23.36    c-1.225,6.092-2.826,12.509-4.45,18.635c-0.527,1.988-0.938,6.215-3.151,5.005c-1.818-0.993,0.903-5.328,0.834-6.768    c-1.796,1.269-3.612,2.798-5.841,3.894c-2.277,1.119-4.961,1.841-7.972,1.762c-6.164-0.161-9.636-3.688-13.256-6.489    c-1.677,3.974-3.073,7.766-3.987,12.237c-0.941,4.602-1.216,10.134,0.093,14.368c2.472,7.992,11.045,11.621,21.692,10.104    c13.67-1.947,21.591-10.783,28.088-20.487c1.503-2.243,3.163-4.857,4.542-7.603c0.432-0.854,1.204-2.099,1.299-2.687    c0.139-0.865-0.24-2.367-0.371-3.616c-0.609-5.822-1.256-11.569-1.947-17.613c-0.24-2.107-1.174-6.323,0.927-6.119    c1.889,0.185,1.743,4.705,1.947,6.675c1.869,17.967,4.047,36.776,5.84,54.509c-0.907-0.081-1.819-0.157-2.781-0.185    c-1.026-9.449-2.006-18.944-3.059-28.367c-4.902,8.395-10.505,16.5-18.541,22.156c-3.843,2.705-8.79,4.999-14.553,5.933    c-13.038,2.111-24.069-3.029-26.236-13.72c-1.212-5.987-0.074-12.616,1.391-18.078c2.457-9.152,7.069-16.675,11.031-24.751    c0.441-0.896,1.57-2.857,1.484-3.615c-0.138-1.195-3.231-2.725-4.45-3.615c-4.201-3.069-8.127-7.014-8.807-13.441    c-0.055-0.526,0.105-1.161,0-1.762c-0.111-0.641-1.066-1.854-1.391-2.595c-0.414-0.946-0.78-1.895-0.833-3.06    c-0.035-0.745,0.262-1.25,0.185-1.947c-0.065-0.591-0.556-1.218-0.741-1.854c-0.269-0.92-0.439-1.916-0.279-2.967    c0.095-0.619,0.575-1.396,0.556-1.947c-0.018-0.505-0.58-1.262-0.741-1.669c-1.306-3.302,0.206-7.715,3.986-7.878    c2.814-0.124,5.063,1.96,5.377,5.005c0.085,0.828-0.27,1.935-0.092,2.873c0.134,0.716,0.979,1.229,1.298,2.133    c0.243,0.692,0.352,1.533,0.371,2.317c0.015,0.577-0.292,1.296-0.186,1.947c0.125,0.768,1.071,1.409,1.391,2.225    c0.64,1.635,0.517,3.669-0.187,5.19c0.379,0.724,0.924,1.322,1.206,2.132c0.625,1.806,1.012,7.554-1.019,7.787    c-1.903,0.221-1.53-1.745-1.391-3.521c0.115-1.48-0.039-3.308-0.834-4.357c-0.303-0.4-1.587-1.652-3.059-1.112    c-1.892,0.694-0.398,5.169,0.092,6.304c2.225,5.135,6.182,7.223,10.198,10.476c1.027,0.833,2.185,1.569,2.04,3.615    c-0.129,1.803-1.069,3.293-1.762,4.728c-2.121,4.408-4.401,8.523-6.488,12.887c1.561,2.03,3.62,3.51,5.933,4.819    c2.338,1.325,5.145,2.299,8.528,1.762c4.262-0.677,7.512-3.26,10.29-5.841c0.882-0.82,2.099-1.88,2.503-2.78    c0.446-0.995,0.534-2.464,0.833-3.801c1.924-8.54,3.885-17.675,4.915-26.976c0.641-5.797,0.37-11.38-0.65-16.873    c-0.545-2.938-0.722-5.643-0.278-8.343c0.418-2.539,1.31-4.826,1.576-7.324c-4.739,0.28-6.044,4.997-6.396,9.734    c-0.086,1.163-0.093,2.845,0,4.356c0.11,1.795,0.402,3.592-1.206,3.615c-1.889,0.029-1.772-4.253-1.668-6.489    c0.254-5.48,1.107-9.279,4.078-12.05c1.542-1.438,6.602-3.467,7.787-0.279c0.571,1.531-0.147,3.865-0.555,5.285    c-0.454,1.572-0.996,3.418-1.113,5.005c-0.311,4.233,1.082,6.923,1.298,10.939C55.23,85.69,65.444,76.53,84.542,76.253    c-0.625-0.845-1.488-1.654-2.318-2.595c-4.634-5.257-7.533-12.578-9.178-21.138c-0.276-1.443-0.621-3.742,1.297-3.337    c1.162,0.245,1.269,2.114,1.576,3.522c2.101,9.619,5.873,18.263,12.608,22.99c2.111,1.482,4.29,2.646,7.416,2.782    c7.862,0.34,12.766-4.651,16.038-9.456c0.525-0.771,1.38-2.553,2.41-2.596c0.498-0.021,1.123,0.362,1.297,0.834    c0.513,1.376-1.252,3.292-1.946,4.265c-2.577,3.611-6.186,6.808-10.475,8.437c0.268,0.895,0.709,1.853,1.204,2.966    c0.498,1.116,2.014,3.835-0.277,3.894c-1.274,0.032-1.773-1.697-2.226-2.688c-0.596-1.31-0.893-2.304-1.483-3.338    c-2.435,0.766-6.255,0.547-8.528-0.186c0.289,6.136,2.46,10.575,6.674,12.979c4.206,2.4,10.5,3.06,16.316,1.576    c10.114-2.579,17.664-8.97,24.102-15.018c-1.531-0.74-3.231-1.198-4.913-1.761c-2.037-0.683-3.835-1.543-6.396-1.577    c-0.759-0.009-2.375-1.893-3.06-2.688c-2.567-2.982-4.32-6.561-4.542-11.772c-0.771-0.165-1.9-0.075-2.039-1.206    c-0.189-1.546,1.379-1.595,2.503-2.132c2.106-1.006,3.783-2.697,4.449-4.728c0.38-1.16,0.579-2.717,0.093-3.893    c-0.715-1.73-2.867-1.842-4.079-0.929c-1.066,0.807-1.168,2.252-1.668,3.986c-0.412,1.429-2.243,4.758-4.265,4.637    c-2.093-0.126-2.316-3.353-2.688-5.749c-0.402-2.604-0.843-5.232-1.297-7.138c-0.936-3.926-2.848-9.77-6.117-10.66    c-1.767-0.482-3.188,0.309-4.728,0.927c-3.883,1.559-7.693,3.313-12.145,4.265c-2.925,0.626-6.435,0.82-9.826,0    c-1.569-0.38-2.574-0.803-3.894-1.576c-0.758-0.443-2.831-1.226-2.595-2.781c0.349-2.319,3.011-0.096,4.17,0.557    c5.829,3.277,14.537,0.442,19.747-1.669c2.076-0.841,4.755-2.318,7.23-2.596c5.832-0.651,8.323,5.093,9.734,8.992    c1.532,4.233,1.93,8.465,2.874,13.813c1.374-0.993,1.099-3.513,2.224-5.47c1.423-2.471,4.522-3.849,7.601-2.224    c1.068,0.562,1.685,1.265,2.318,2.409c3.229-5.747,3.693-13.926,1.205-20.023c-1.679-4.115-4.383-7.905-7.416-10.939    c-1.034-1.034-2.142-2.283-3.152-2.966c-0.58-0.393-1.497-0.453-1.668-1.112c-0.479-1.854,2.06-3.838,2.132-5.283    c-1.803,0.227-3.616,2.817-5.469,2.131c-1.329-0.492-0.913-2.83-1.206-4.542c-1.203,0.956-0.984,3.455-2.595,3.801    c-0.841,0.18-1.307-0.404-1.947-0.65c-8.254-3.147-17.193-1.169-23.454,2.227c-4.647,2.52-8.339,6.188-10.568,11.217    c-1.715,3.868-3.997,7.007-9.548,7.139c0.187,1.718,2.845,3.099,2.596,5.006c-0.231,1.771-3.3,1.468-4.821,2.225    c1.026,0.97,1.782,1.527,3.245,2.225c0.413,0.195,3.231,0.853,3.245,2.132c0.024,2.239-2.877,1.058-4.171,0.463    c-1.937-0.888-3.283-1.731-4.821-3.151c-0.621-0.572-1.676-1.546-1.668-2.317c0.025-2.146,3.84-1.677,5.377-2.596    c-0.314-0.83-1.027-1.68-1.669-2.688c-0.516-0.812-1.438-1.854-1.205-2.874c0.31-1.354,2.119-0.954,4.171-1.205    c4.681-0.571,5.45-2.9,7.138-6.489c2.48-5.272,6.323-8.785,11.681-11.772c6.314-3.521,16.927-5.595,25.401-2.133    c0.663-0.747,1.153-2.221,1.854-3.615c0.72-1.434,1.745-4.51,3.522-2.966C115.058,1.403,114.435,5.826,115.041,7.468z     M5.282,84.596c-2.337-0.457-3.097,2.556-2.04,4.45c0.874-0.542,2.405-0.837,3.8-0.556C7.104,86.511,6.714,84.877,5.282,84.596z     M4.447,91.549c-0.996,0.712-1.225,2.386-0.833,3.986c1.267-0.681,3.184-1.098,5.005-0.927C9.089,91.93,6.305,90.224,4.447,91.549    z M4.354,98.872c-0.51,1.284,0.432,2.466,0.648,3.523c1.015-0.93,3.447-1.239,5.006-0.557    C11.821,97.679,5.536,95.901,4.354,98.872z M123.569,145.688c-0.758-4.456-0.646-8.921-2.874-11.866    c-2.226-2.946-6.354-4.661-11.031-5.284c-2.588-0.345-6.2-0.636-9.178-0.277c-3.217,0.386-6.707,0.129-8.806,1.761    c0.589,3.599,5.557,1.677,9.27,1.946c1.677,0.122,3.309,0.626,4.728,1.112c1.458,0.501,2.851,1.546,4.078,1.762    c1.838,0.324,3.695-0.399,3.708,1.39c0.015,2.01-3.531,1.298-5.748,1.392c-7.043,0.298-13.593,1.47-16.964,5.098    c-0.527,0.568-1.485,1.635-1.39,2.688c0.093,1.029,1.008,1.145,1.76,1.854c3.927-2.901,10.156-4.65,17.151-4.912    c2.251-0.085,5.989-0.517,5.84,1.575c-0.083,1.167-1.167,1.205-2.688,1.205c-7.177,0-11.89,0.739-16.408,3.06    c-1.732,0.889-3.955,2.132-3.801,3.986c0.074,0.896,1.362,2.09,3.151,1.668c0.61-0.144,1.44-1.077,1.855-1.39    c1.912-1.438,3.699-2.3,6.952-2.875c2.278-0.401,11.085-1.197,11.125,1.299c0.03,1.938-2.444,1.188-4.171,1.112    c-4.661-0.206-9.495,0.582-12.052,2.409c-1.093,0.781-2.005,1.759-2.226,3.245c0.711,0.748,1.646,0.723,2.69,0.649    c2.078-0.146,4.036-1.077,6.581-1.483c0.989-0.157,2.382-0.278,3.801-0.278c1.323,0,2.977-0.258,3.894,0.186    c1.784,0.865,0.724,3.124,0.371,4.82c-0.242,1.158-0.375,2.355-0.464,3.431c-0.71,8.526,4.572,11.211,9.827,14.368    c10.688,6.423,21.009,12.086,33.836,16.223c2.369-3.374,4.982-7.534,6.024-12.515c1.104-5.268,0.72-11.766-0.277-17.058    c-3.192-0.627-6.331-2.178-9.548-3.059c-2.103-0.576-4.389-0.842-6.582-1.298c-6.609-1.375-13.318-2.462-19.838-3.894    C125.175,154.088,124.295,149.955,123.569,145.688z"
            fill="#000000"
            origin_fill="#000000"
            isInit="true"
          ></path>
          <path
            fill-rule="evenodd"
            clip-rule="evenodd"
            d="M98.447,41.675c2.486-0.252,4.544,0.256,6.304,1.297    c1.155,0.686,2.548,1.527,2.595,2.505c0.033,0.714-0.482,1.427-1.205,1.482c-1.222,0.095-2.128-1.316-3.152-1.854    c-1.824-0.957-4.869-0.826-6.953-0.092c-1.253,0.441-3.478,1.692-3.615-0.371c-0.09-1.366,1.708-1.878,2.41-2.133    C96.138,42.037,97.051,41.815,98.447,41.675z"
            fill="#000000"
            origin_fill="#000000"
            isInit="true"
          ></path>
          <path
            fill-rule="evenodd"
            clip-rule="evenodd"
            d="M73.788,42.602c5.566-0.684,9.295,2.529,12.052,5.469    c3.287,3.505,6.015,9.983,3.801,16.039c-0.276,0.753-1.286,2.325-1.205,3.151c0.125,1.275,1.835,0.862,1.946,2.317    c0.177,2.3-2.417,1.292-3.244,0.649c-3.375-2.622,0.277-6.113,0.556-9.733c0.341-4.429-1.742-7.967-3.8-10.384    c-1.9-2.232-5.093-5.336-9.733-4.819c-1.118,0.123-2.611,0.802-3.708,1.483c-0.696,0.43-2.359,2.068-3.337,1.946    c0.092,0.011-1.022-0.14-1.113-1.205c-0.116-1.373,2.121-2.533,3.151-3.152C70.81,43.369,72.136,42.805,73.788,42.602z"
            fill="#000000"
            origin_fill="#000000"
            isInit="true"
          ></path>
          <path
            fill-rule="evenodd"
            clip-rule="evenodd"
            d="M101.785,69.022c3.292-0.247,1.265,2.876,0,3.985    c-1.423,1.249-3.741,2.133-5.935,1.947c-0.972-0.187-1.306-1.892-0.37-2.503c0.86-0.563,2.469-0.332,3.429-0.834    c1.471-0.767,1.72-1.817,2.69-2.503C101.601,69.024,101.713,69.044,101.785,69.022z"
            fill="#000000"
            origin_fill="#000000"
            isInit="true"
          ></path>
        </g>
        <g isInit="true">
          <path
            fill-rule="evenodd"
            clip-rule="evenodd"
            fill="#ffffff"
            d="M11.594,65.652c-0.852,0-1.545-0.649-1.545-1.448V63.97    l0.72-1.557c0.77-1.792,2.015-2.794,3.492-2.794h16.914c1.87,0,2.664,1.403,3.364,2.642l0.758,1.721v0.223    c0,0.799-0.692,1.448-1.544,1.448H11.594z"
            origin_fill="#ffffff"
            isInit="true"
          ></path>
          <path
            d="M31.175,60.686c1.248,0,1.768,0.918,2.437,2.1l0.619,1.419c0,0.211-0.214,0.382-0.477,0.382h-22.16    c-0.264,0-0.479-0.171-0.479-0.382l0.621-1.344c0.455-1.056,1.276-2.175,2.525-2.175H31.175L31.175,60.686z M31.175,58.553H14.261    c-1.901,0-3.535,1.263-4.484,3.465L9.179,63.31l-0.196,0.425v0.47c0,1.387,1.171,2.515,2.611,2.515h22.16    c1.439,0,2.61-1.128,2.61-2.515v-0.446l-0.178-0.407l-0.62-1.419l-0.044-0.101l-0.054-0.096    C34.707,60.393,33.666,58.553,31.175,58.553L31.175,58.553z"
            fill="#000000"
            origin_fill="#000000"
            isInit="true"
          ></path>
        </g>
        <g isInit="true">
          <path
            fill-rule="evenodd"
            clip-rule="evenodd"
            fill="#ffffff"
            d="M5.708,74.954c-1.005,0-1.823-0.822-1.823-1.832v-0.189    l1.047-2.861c1.103-3.25,2.88-5.052,4.993-5.052h26.757c2.666,0,3.715,2.348,4.827,4.831l1.073,3.092v0.18    c0,1.01-0.817,1.832-1.821,1.832H5.708z"
            origin_fill="#ffffff"
            isInit="true"
          ></path>
          <path
            d="M36.682,66.086c1.974,0,2.796,1.837,3.854,4.2l0.979,2.836c0,0.423-0.338,0.766-0.754,0.766H5.708    c-0.417,0-0.756-0.343-0.756-0.766l0.982-2.685c0.718-2.112,2.019-4.352,3.992-4.352H36.682L36.682,66.086z M36.682,63.954H9.925    c-2.606,0-4.741,2.059-6.011,5.796l-0.966,2.64l-0.129,0.354v0.378c0,1.598,1.295,2.897,2.889,2.897h35.053    c1.591,0,2.887-1.3,2.887-2.897v-0.357l-0.117-0.339l-0.979-2.836l-0.03-0.088l-0.038-0.086    C41.337,66.855,40.04,63.954,36.682,63.954L36.682,63.954z"
            fill="#000000"
            origin_fill="#000000"
            isInit="true"
          ></path>
        </g>
        <g isInit="true">
          <g isInit="true">
            <path
              fill-rule="evenodd"
              clip-rule="evenodd"
              fill="#ffffff"
              d="M37.012,114.702l61.129,5.973     c3.059,0.299,5.764,1.6,6.042,2.904l9.573,45.124c0.277,1.305-1.979,2.119-5.039,1.821l-61.128-5.974     c-3.061-0.299-5.766-1.599-6.042-2.903l-9.575-45.125C31.696,115.218,33.952,114.402,37.012,114.702z"
              origin_fill="#ffffff"
              isInit="true"
            ></path>
          </g>
          <g isInit="true">
            <g isInit="true">
              <path
                d="M109.955,171.653c-0.43,0-0.877-0.022-1.34-0.068l-61.129-5.974c-3.139-0.306-6.547-1.69-6.981-3.743l-9.575-45.124      c-0.14-0.659,0.04-1.308,0.505-1.827c0.945-1.057,3.061-1.533,5.682-1.275l61.128,5.973c3.139,0.307,6.544,1.691,6.981,3.743      l9.574,45.124c0.14,0.658-0.039,1.307-0.503,1.827C113.521,171.175,111.946,171.652,109.955,171.653z M35.789,115.707      c-1.708,0-2.658,0.429-2.784,0.656l9.585,45.063c0.102,0.479,1.959,1.757,5.103,2.064l61.128,5.974      c2.413,0.232,3.75-0.328,3.904-0.602L103.14,123.8c-0.102-0.477-1.96-1.757-5.103-2.064l-61.128-5.972      C36.505,115.724,36.132,115.707,35.789,115.707z"
                fill="#000000"
                origin_fill="#000000"
                isInit="true"
              ></path>
            </g>
          </g>
        </g>
        <g opacity="0.8" isInit="true">
          <path
            fill-rule="evenodd"
            clip-rule="evenodd"
            d="M37.012,114.702l61.129,5.973c3.059,0.299,5.764,1.6,6.042,2.904l9.573,45.124    c0.277,1.305-1.979,2.119-5.039,1.821l-61.128-5.974c-3.061-0.299-5.766-1.599-6.042-2.903l-9.575-45.125    C31.696,115.218,33.952,114.402,37.012,114.702z"
            fill="#000000"
            origin_fill="#000000"
            isInit="true"
          ></path>
        </g>
        <path
          opacity="0.4"
          fill-rule="evenodd"
          clip-rule="evenodd"
          fill="#ffffff"
          d="M68.565,137.196c4.186,0,8.233,3.144,9.039,7.023   c0.805,3.88-1.936,7.023-6.123,7.023c-4.186,0-8.233-3.144-9.038-7.023C61.637,140.34,64.378,137.196,68.565,137.196z"
          origin_fill="#ffffff"
          isInit="true"
        ></path>
        <path
          fill-rule="evenodd"
          clip-rule="evenodd"
          fill="#ffffff"
          d="M112.864,158.124c0,0,0.945,3.076,1.787,6.124h8.056v-21.509   h1.671c-0.87-4.441-1.941-8.796-3.093-10.963c-2.877-5.417-17.95-4.343-24.368-4.261c-6.418,0.082-7.03,2.773-6.042,4.358   c0.988,1.585,6.629,1.391,9.707,0.893c3.079-0.499,8.817,3.664,8.817,3.664s-6.659,0.166-12.085,1.09   c-5.427,0.924-9.688,4.906-9.312,7.43c0.377,2.522,2.278,5.249,2.278,5.249s-0.988,2.105-0.197,3.765   c0.79,1.66,4.853,2.377,4.853,2.377s-0.646,2.15,0.595,3.467s5.543-1.197,9.212-1.584   C108.411,157.837,112.864,158.124,112.864,158.124z"
          origin_fill="#ffffff"
          isInit="true"
        ></path>
        <g isInit="true">
          <path
            fill-rule="evenodd"
            clip-rule="evenodd"
            d="M127.714,153.195c-0.788-3.355-1.526-6.547-2.042-9.897    c-0.692-4.493-0.655-8.234-3.059-11.402c-3.023-3.983-8.622-6.139-15.203-6.489c-2.25-0.119-4.859-0.366-7.139-0.092    c-3.958,0.475-10.07,0.264-11.402,3.336c-1.368,3.154,2.089,5.925,4.634,6.212c2.748,0.309,6.188-0.979,8.992,0.186    c-3.296,0.386-6.95,1.148-10.011,2.688c-2.729,1.372-5.669,3.832-6.119,6.675c-0.424,2.679,1.343,3.565,2.595,4.913    c-1.941,3.254,0.426,7.088,3.894,7.23c-0.158,0.963-0.066,1.564,0.186,2.133c1.759,3.979,7.887,1.534,11.402,0.833    c2.106-0.418,5.377-0.854,6.582-0.186c1.161,0.646,1.135,2.393,1.669,3.615c0.021-2.187,2.009-4.835,0.186-6.21    c-1.288-0.972-6.023-0.392-7.602-0.186c-2.651,0.346-4.859,1.404-6.86,1.576c-1.31,0.112-2.338,0.058-2.874-0.835    c1.852-4.505,7.825-5.915,14.74-5.469c1.691,0.109,3.435,0.658,3.707-0.742c0.393-2.01-1.804-1.81-3.615-1.946    c-6.13-0.465-11.232,0.745-14.369,3.06c-0.744,0.549-1.091,1.315-1.946,1.482c-1.72,0.338-3.013-0.724-3.059-1.762    c-0.078-1.685,2.127-3.117,3.799-3.985c3.904-2.025,7.343-2.724,12.701-2.967c2.545-0.115,6.569,0.723,6.397-1.482    c-0.136-1.738-3.745-1.374-5.933-1.299c-7.144,0.246-13.096,2.008-17.058,4.914c-2.539-0.999-1.707-3.038-0.278-4.544    c2.125-2.239,5.265-3.334,8.435-4.078c3.09-0.726,7.277-1.31,11.402-1.113c1.59,0.077,2.752,0.068,2.782-1.204    c0.044-1.912-1.734-1.085-3.801-1.482c-0.521-0.103-1.244-0.614-1.947-0.928c-2.032-0.908-4.311-1.775-6.86-1.946    c-3.79-0.255-8.54,1.531-9.271-1.855c1.348-1.176,3.542-1.464,5.656-1.668c9.481-0.917,19.167,0.183,23.176,5.099    c2.426,2.976,2.312,7.556,3.059,11.866c0.763,4.403,1.651,8.646,2.688,12.328c0.586,0.127,1.174,0.25,1.764,0.374V153.195z"
            fill="#000000"
            origin_fill="#000000"
            isInit="true"
          ></path>
          <path
            fill-rule="evenodd"
            clip-rule="evenodd"
            d="M112.416,164.434c0.285,0.201-0.088,0.522,0,0.835    c-0.25-0.027-0.166-0.39-0.371-0.463C112.075,164.588,112.332,164.598,112.416,164.434z"
            fill="#000000"
            origin_fill="#000000"
            isInit="true"
          ></path>
        </g>
      </g>
    </svg>
