<svg id="Capa_1" enable-background="new 0 0 510 510" height="512" viewBox="0 0 510 510" width="512" xmlns="http://www.w3.org/2000/svg"><path style="fill:#495357;"   d="m465 45.004h-420c-24.813 0-45 20.187-45 45v239.984c0 24.813 20.187 45 45 45h153.591l-4.547 60.008h-27.461c-8.284 0-15 6.716-15 15s6.716 15 15 15h176.833c8.284 0 15-6.716 15-15s-6.716-15-15-15h-27.46l-4.546-60.008h153.59c24.813 0 45-20.187 45-45v-239.984c0-24.814-20.187-45-45-45zm-240.87 389.992 4.546-60.006h52.648l4.546 60.006zm255.87-105.008c0 8.271-6.729 15-15 15h-420c-8.271 0-15-6.729-15-15v-239.984c0-8.271 6.729-15 15-15h420c8.271 0 15 6.729 15 15z"/><path style="fill:#495357;"   d="m63 178.373c8.284 0 15-6.716 15-15v-37.012h39.582c8.284 0 15-6.716 15-15s-6.716-15-15-15h-54.582c-8.284 0-15 6.716-15 15v52.012c0 8.284 6.716 15 15 15z"/><path style="fill:#495357;"   d="m117.582 293.631h-39.582v-37.012c0-8.284-6.716-15-15-15s-15 6.716-15 15v52.012c0 8.284 6.716 15 15 15h54.582c8.284 0 15-6.716 15-15s-6.716-15-15-15z"/><path style="fill:#495357;"   d="m447 96.361h-54.581c-8.284 0-15 6.716-15 15s6.716 15 15 15h39.581v37.012c0 8.284 6.716 15 15 15s15-6.716 15-15v-52.012c0-8.284-6.716-15-15-15z"/><path style="fill:#495357;"   d="m447 241.619c-8.284 0-15 6.716-15 15v37.012h-39.581c-8.284 0-15 6.716-15 15s6.716 15 15 15h54.581c8.284 0 15-6.716 15-15v-52.012c0-8.284-6.716-15-15-15z"/><path style="fill:#495357;"   d="m255 166.121c-8.284 0-15 6.716-15 15v3.5c0 8.284 6.716 15 15 15s15-6.716 15-15v-3.5c0-8.284-6.716-15-15-15z"/><path style="fill:#495357;"   d="m255 220.371c-8.284 0-15 6.716-15 15v3.5c0 8.284 6.716 15 15 15s15-6.716 15-15v-3.5c0-8.284-6.716-15-15-15z"/><path style="fill:#495357;"   d="m208.761 170.887c-5.857-5.857-15.355-5.857-21.213 0l-17.897 17.897-17.897-17.897c-5.857-5.858-15.354-5.858-21.213 0-5.858 5.857-5.858 15.355 0 21.213l17.897 17.897-17.897 17.897c-5.858 5.857-5.858 15.355 0 21.213s15.355 5.858 21.213 0l17.897-17.897 17.897 17.897c5.856 5.857 15.354 5.859 21.213 0 5.858-5.857 5.858-15.355 0-21.213l-17.897-17.897 17.897-17.897c5.858-5.858 5.858-15.356 0-21.213z"/><path style="fill:#495357;"   d="m379.46 192.098c5.856-5.858 5.855-15.356-.004-21.213-5.857-5.855-15.355-5.855-21.213.004l-17.892 17.897-17.892-17.897c-5.856-5.86-15.354-5.86-21.213-.004s-5.86 15.354-.004 21.213l24.108 24.117v22.285c0 8.284 6.716 15 15 15s15-6.716 15-15v-22.286z"/></svg>