<svg id="Capa_1" enable-background="new 0 0 512.072 512.072" height="512" viewBox="0 0 512.072 512.072" width="512" xmlns="http://www.w3.org/2000/svg"><g><path d="m76.125 398.314-23.633 18.479c13.12 16.779 28.387 31.809 45.376 44.67l18.107-23.919c-14.92-11.296-28.329-24.495-39.85-39.23z"/><path d="m444.799 428.797-22.201-20.177c-12.654 13.925-26.977 26.257-42.568 36.655l16.645 24.959c17.63-11.758 33.821-25.699 48.124-41.437z"/><path d="m214.298 509.936 4.447-29.668c-18.807-2.82-37.03-7.843-54.165-14.931l-11.467 27.722c19.384 8.018 39.969 13.696 61.185 16.877z"/><path d="m40.904 184.391-28.672-8.829c-6.308 20.488-10.363 41.339-12.05 61.974l29.9 2.446c1.511-18.474 5.152-37.177 10.822-55.591z"/><path d="m2.449 300.894c3.32 21.133 9.241 41.695 17.599 61.115l27.557-11.858c-7.366-17.117-12.587-35.256-15.519-53.913z"/><path d="m455.018 362.76 26.432 14.189c10.076-18.77 17.78-38.717 22.898-59.286l-29.113-7.243c-4.516 18.154-11.318 35.764-20.217 52.34z"/><path d="m277.611 512.072c21.203-1.818 42.132-6.325 62.206-13.395l-9.965-28.296c-17.687 6.229-36.125 10.199-54.805 11.801z"/><path d="m255.891 107.508-148.493 148.492 148.492 148.492 148.493-148.492zm-106.067 148.492 106.066-106.066 106.067 106.066-106.066 106.066z"/><path d="m120.891 121h-45.044c42.441-56.704 109.255-91 180.043-91 124.617 0 226 101.383 226 226h30c0-140.96-115.049-256-256-256-73.011 0-144.781 31.847-195 91.649v-30.649h-30v90h90v-30z"/></g></svg>